<?xml version="1.0" encoding="UTF-8"?>
<svg id="Layer_1" data-name="Layer 1" xmlns="http://www.w3.org/2000/svg" viewBox="0 0 697.29 313.2">
  <path d="M0,72V2h26.2c5.67,0,10.37.97,14.1,2.9,3.73,1.93,6.5,4.53,8.3,7.8,1.8,3.27,2.7,7,2.7,11.2,0,3.87-.87,7.43-2.6,10.7-1.73,3.27-4.47,5.92-8.2,7.95-3.73,2.03-8.5,3.05-14.3,3.05h-12.7v26.4H0ZM13.5,34.7h11.9c4.33,0,7.45-.98,9.35-2.95,1.9-1.97,2.85-4.58,2.85-7.85,0-3.47-.95-6.15-2.85-8.05s-5.02-2.85-9.35-2.85h-11.9v21.7Z"/>
  <path d="M82.4,73.2c-4.8,0-9.12-1.12-12.95-3.35-3.83-2.23-6.87-5.33-9.1-9.3-2.23-3.97-3.35-8.52-3.35-13.65s1.12-9.88,3.35-13.85c2.23-3.97,5.28-7.07,9.15-9.3,3.87-2.23,8.2-3.35,13-3.35s9.22,1.12,13.05,3.35c3.83,2.23,6.87,5.33,9.1,9.3,2.23,3.97,3.35,8.55,3.35,13.75s-1.12,9.78-3.35,13.75c-2.23,3.97-5.28,7.07-9.15,9.3-3.87,2.23-8.23,3.35-13.1,3.35ZM82.4,61.5c2.27,0,4.28-.53,6.05-1.6,1.77-1.07,3.17-2.7,4.2-4.9,1.03-2.2,1.55-4.93,1.55-8.2s-.52-5.98-1.55-8.15c-1.03-2.17-2.43-3.8-4.2-4.9-1.77-1.1-3.75-1.65-5.95-1.65s-4.1.55-5.9,1.65c-1.8,1.1-3.22,2.73-4.25,4.9-1.03,2.17-1.55,4.88-1.55,8.15s.52,6,1.55,8.2c1.03,2.2,2.43,3.83,4.2,4.9,1.77,1.07,3.72,1.6,5.85,1.6Z"/>
  <path d="M119.6,72V21.6h12l1.3,9.3c1.2-2.2,2.72-4.07,4.55-5.6,1.83-1.53,3.93-2.73,6.3-3.6,2.37-.87,4.98-1.3,7.85-1.3v14.3h-4.6c-2,0-3.85.23-5.55.7-1.7.47-3.18,1.22-4.45,2.25-1.27,1.03-2.23,2.45-2.9,4.25-.67,1.8-1,4.07-1,6.8v23.3h-13.5Z"/>
  <path d="M183.2,72c-3.53,0-6.62-.55-9.25-1.65-2.63-1.1-4.68-2.93-6.15-5.5-1.47-2.57-2.2-6.08-2.2-10.55v-21.4h-8.6v-11.3h8.6l1.5-13.7h12v13.7h13.3v11.3h-13.3v21.6c0,2.27.5,3.83,1.5,4.7,1,.87,2.7,1.3,5.1,1.3h6.6v11.5h-9.1Z"/>
  <path d="M222.6,73.2c-4.07,0-7.55-.85-10.45-2.55-2.9-1.7-5.12-4.2-6.65-7.5-1.53-3.3-2.3-7.38-2.3-12.25v-29.3h13.5v27.9c0,4.07.85,7.13,2.55,9.2,1.7,2.07,4.32,3.1,7.85,3.1,2.27,0,4.27-.52,6-1.55,1.73-1.03,3.12-2.53,4.15-4.5,1.03-1.97,1.55-4.38,1.55-7.25v-26.9h13.4v50.4h-11.8l-1.1-8.2c-1.47,2.87-3.63,5.15-6.5,6.85-2.87,1.7-6.27,2.55-10.2,2.55Z"/>
  <path d="M287.1,95.2c-4.8,0-9-.58-12.6-1.75-3.6-1.17-6.38-2.93-8.35-5.3-1.97-2.37-2.95-5.29-2.95-8.75,0-2.33.6-4.54,1.8-6.6,1.2-2.07,2.95-3.95,5.25-5.65,2.3-1.7,5.18-3.15,8.65-4.35l5.1,6.6c-3.07,1-5.28,2.25-6.65,3.75-1.37,1.5-2.05,3.12-2.05,4.85,0,1.53.52,2.83,1.55,3.9,1.03,1.07,2.43,1.85,4.2,2.35,1.77.5,3.75.75,5.95.75s3.98-.27,5.55-.8c1.57-.53,2.8-1.32,3.7-2.35.9-1.03,1.35-2.25,1.35-3.65,0-1.8-.63-3.27-1.9-4.4-1.27-1.13-3.8-1.83-7.6-2.1-3.4-.27-6.42-.65-9.05-1.15-2.63-.5-4.95-1.1-6.95-1.8s-3.68-1.48-5.05-2.35c-1.37-.87-2.48-1.73-3.35-2.6v-2.3l10.7-11.5,9.7,3.1-12.6,12.4,3.8-6.6c.73.4,1.45.78,2.15,1.15.7.37,1.58.7,2.65,1,1.07.3,2.47.58,4.2.85,1.73.27,3.93.5,6.6.7,4.4.4,8.02,1.23,10.85,2.5,2.83,1.27,4.92,2.95,6.25,5.05,1.33,2.1,2,4.68,2,7.75s-.82,5.82-2.45,8.45c-1.63,2.63-4.15,4.77-7.55,6.4-3.4,1.63-7.7,2.45-12.9,2.45ZM287.1,57.1c-4.2,0-7.82-.82-10.85-2.45-3.03-1.63-5.37-3.83-7-6.6-1.63-2.77-2.45-5.85-2.45-9.25s.82-6.48,2.45-9.25c1.63-2.77,3.97-4.98,7-6.65,3.03-1.67,6.65-2.5,10.85-2.5s7.92.83,10.95,2.5c3.03,1.67,5.35,3.88,6.95,6.65,1.6,2.77,2.4,5.85,2.4,9.25s-.8,6.48-2.4,9.25c-1.6,2.77-3.92,4.97-6.95,6.6-3.03,1.63-6.68,2.45-10.95,2.45ZM287.1,46.8c2.6,0,4.7-.67,6.3-2,1.6-1.33,2.4-3.3,2.4-5.9s-.8-4.58-2.4-5.95c-1.6-1.37-3.7-2.05-6.3-2.05s-4.62.68-6.25,2.05c-1.63,1.37-2.45,3.35-2.45,5.95s.82,4.57,2.45,5.9c1.63,1.33,3.72,2,6.25,2ZM295.5,31.2l-2.2-9.6h20.7v8l-18.5,1.6Z"/>
  <path d="M342,73.2c-4.2,0-7.67-.68-10.4-2.05-2.73-1.37-4.75-3.2-6.05-5.5-1.3-2.3-1.95-4.85-1.95-7.65,0-3.07.78-5.77,2.35-8.1,1.57-2.33,3.93-4.17,7.1-5.5,3.17-1.33,7.15-2,11.95-2h12.5c0-2.47-.33-4.52-1-6.15-.67-1.63-1.7-2.85-3.1-3.65-1.4-.8-3.27-1.2-5.6-1.2-2.53,0-4.68.55-6.45,1.65-1.77,1.1-2.85,2.78-3.25,5.05h-13.1c.33-3.6,1.52-6.72,3.55-9.35,2.03-2.63,4.73-4.68,8.1-6.15,3.37-1.47,7.12-2.2,11.25-2.2,4.73,0,8.83.8,12.3,2.4,3.47,1.6,6.13,3.9,8,6.9,1.87,3,2.8,6.7,2.8,11.1v31.2h-11.4l-1.5-7.7c-.73,1.33-1.6,2.53-2.6,3.6s-2.17,2-3.5,2.8c-1.33.8-2.83,1.42-4.5,1.85-1.67.43-3.5.65-5.5.65ZM345.2,62.8c1.73,0,3.28-.32,4.65-.95,1.37-.63,2.55-1.5,3.55-2.6s1.78-2.37,2.35-3.8c.57-1.43.95-2.98,1.15-4.65v-.1h-10.3c-2.07,0-3.75.25-5.05.75-1.3.5-2.25,1.22-2.85,2.15-.6.93-.9,2-.9,3.2,0,1.33.3,2.43.9,3.3.6.87,1.47,1.54,2.6,2,1.13.47,2.43.7,3.9.7Z"/>
  <path d="M383.6,72V0h13.5v72h-13.5Z"/>
  <path d="M0,192v-70h23.4c8.13,0,14.85,1.45,20.15,4.35,5.3,2.9,9.23,6.97,11.8,12.2,2.57,5.23,3.85,11.38,3.85,18.45s-1.28,13.22-3.85,18.45c-2.57,5.23-6.48,9.3-11.75,12.2-5.27,2.9-12,4.35-20.2,4.35H0ZM13.5,180.4h9.2c5.73,0,10.25-.93,13.55-2.8,3.3-1.87,5.65-4.55,7.05-8.05,1.4-3.5,2.1-7.68,2.1-12.55s-.7-9.15-2.1-12.65c-1.4-3.5-3.75-6.18-7.05-8.05-3.3-1.87-7.82-2.8-13.55-2.8h-9.2v46.9Z"/>
  <path d="M94.6,193.2c-5.07,0-9.55-1.08-13.45-3.25-3.9-2.17-6.93-5.2-9.1-9.1-2.17-3.9-3.25-8.42-3.25-13.55s1.07-9.92,3.2-13.95c2.13-4.03,5.15-7.2,9.05-9.5,3.9-2.3,8.42-3.45,13.55-3.45s9.37,1.1,13.1,3.3c3.73,2.2,6.63,5.17,8.7,8.9,2.07,3.73,3.1,7.97,3.1,12.7v2.25c0,.83-.07,1.68-.2,2.55h-40.9v-8.2h27.5c-.2-3.27-1.35-5.83-3.45-7.7-2.1-1.87-4.72-2.8-7.85-2.8-2.27,0-4.37.52-6.3,1.55-1.93,1.03-3.45,2.62-4.55,4.75-1.1,2.13-1.65,4.83-1.65,8.1v2.9c0,2.73.52,5.12,1.55,7.15,1.03,2.04,2.48,3.6,4.35,4.7,1.87,1.1,4.03,1.65,6.5,1.65s4.52-.53,6.15-1.6c1.63-1.07,2.85-2.43,3.65-4.1h13.8c-.93,3.13-2.5,5.97-4.7,8.5-2.2,2.53-4.9,4.53-8.1,6s-6.77,2.2-10.7,2.2Z"/>
  <path d="M142.1,192l-18.5-50.4h14.2l12.5,37.7,12.5-37.7h14.1l-18.4,50.4h-16.4Z"/>
  <path d="M207,193.2c-5.07,0-9.55-1.08-13.45-3.25-3.9-2.17-6.93-5.2-9.1-9.1-2.17-3.9-3.25-8.42-3.25-13.55s1.07-9.92,3.2-13.95c2.13-4.03,5.15-7.2,9.05-9.5,3.9-2.3,8.42-3.45,13.55-3.45s9.37,1.1,13.1,3.3c3.73,2.2,6.63,5.17,8.7,8.9,2.07,3.73,3.1,7.97,3.1,12.7v2.25c0,.83-.07,1.68-.2,2.55h-40.9v-8.2h27.5c-.2-3.27-1.35-5.83-3.45-7.7-2.1-1.87-4.72-2.8-7.85-2.8-2.27,0-4.37.52-6.3,1.55-1.93,1.03-3.45,2.62-4.55,4.75-1.1,2.13-1.65,4.83-1.65,8.1v2.9c0,2.73.52,5.12,1.55,7.15,1.03,2.04,2.48,3.6,4.35,4.7,1.87,1.1,4.03,1.65,6.5,1.65s4.52-.53,6.15-1.6c1.63-1.07,2.85-2.43,3.65-4.1h13.8c-.93,3.13-2.5,5.97-4.7,8.5-2.2,2.53-4.9,4.53-8.1,6s-6.77,2.2-10.7,2.2Z"/>
  <path d="M243,192v-72h13.5v72h-13.5Z"/>
  <path d="M293.5,193.2c-4.8,0-9.12-1.12-12.95-3.35-3.83-2.23-6.87-5.33-9.1-9.3-2.23-3.97-3.35-8.52-3.35-13.65s1.12-9.88,3.35-13.85c2.23-3.97,5.28-7.07,9.15-9.3,3.87-2.23,8.2-3.35,13-3.35s9.22,1.12,13.05,3.35c3.83,2.23,6.87,5.33,9.1,9.3,2.23,3.97,3.35,8.55,3.35,13.75s-1.12,9.78-3.35,13.75c-2.23,3.97-5.28,7.07-9.15,9.3-3.87,2.23-8.23,3.35-13.1,3.35ZM293.5,181.5c2.27,0,4.28-.53,6.05-1.6,1.77-1.07,3.17-2.7,4.2-4.9,1.03-2.2,1.55-4.93,1.55-8.2s-.52-5.98-1.55-8.15c-1.03-2.17-2.43-3.8-4.2-4.9-1.77-1.1-3.75-1.65-5.95-1.65s-4.1.55-5.9,1.65c-1.8,1.1-3.22,2.73-4.25,4.9-1.03,2.17-1.55,4.88-1.55,8.15s.52,6,1.55,8.2c1.03,2.2,2.43,3.83,4.2,4.9,1.77,1.07,3.72,1.6,5.85,1.6Z"/>
  <path d="M330.7,214v-72.4h12l1.5,7c1.07-1.46,2.33-2.82,3.8-4.05,1.47-1.23,3.22-2.23,5.25-3,2.03-.77,4.42-1.15,7.15-1.15,4.73,0,8.9,1.17,12.5,3.5,3.6,2.33,6.45,5.48,8.55,9.45,2.1,3.97,3.15,8.48,3.15,13.55s-1.07,9.58-3.2,13.55c-2.13,3.97-5,7.08-8.6,9.35s-7.7,3.4-12.3,3.4c-3.73,0-6.95-.68-9.65-2.05-2.7-1.37-4.92-3.25-6.65-5.65v28.5h-13.5ZM357.3,181.4c2.67,0,5.02-.6,7.05-1.8,2.03-1.2,3.62-2.9,4.75-5.1,1.13-2.2,1.7-4.73,1.7-7.6s-.57-5.42-1.7-7.65c-1.13-2.23-2.72-3.97-4.75-5.2-2.03-1.23-4.38-1.85-7.05-1.85s-4.92.62-6.95,1.85c-2.03,1.23-3.63,2.95-4.8,5.15-1.17,2.2-1.75,4.73-1.75,7.6s.58,5.42,1.75,7.65c1.17,2.23,2.77,3.95,4.8,5.15,2.03,1.2,4.35,1.8,6.95,1.8Z"/>
  <path d="M396.2,192v-50.4h11.9l1.1,6.7c1.6-2.4,3.71-4.32,6.35-5.75,2.63-1.43,5.65-2.15,9.05-2.15,2.53,0,4.8.33,6.8,1,2,.67,3.78,1.63,5.35,2.9,1.57,1.27,2.85,2.87,3.85,4.8,1.87-2.73,4.3-4.87,7.3-6.4,3-1.53,6.27-2.3,9.8-2.3,4.4,0,8.07.88,11,2.65,2.93,1.77,5.15,4.32,6.65,7.65,1.5,3.33,2.25,7.43,2.25,12.3v29h-13.4v-27.8c0-4-.78-7.07-2.35-9.2-1.57-2.13-3.98-3.2-7.25-3.2-2.13,0-4.03.53-5.7,1.6-1.67,1.07-2.95,2.6-3.85,4.6-.9,2-1.35,4.4-1.35,7.2v26.8h-13.5v-27.8c0-4-.8-7.07-2.4-9.2-1.6-2.13-4.07-3.2-7.4-3.2-2.07,0-3.92.53-5.55,1.6-1.63,1.07-2.9,2.6-3.8,4.6s-1.35,4.4-1.35,7.2v26.8h-13.5Z"/>
  <path d="M514.49,193.2c-5.07,0-9.55-1.08-13.45-3.25-3.9-2.17-6.93-5.2-9.1-9.1-2.17-3.9-3.25-8.42-3.25-13.55s1.07-9.92,3.2-13.95c2.13-4.03,5.15-7.2,9.05-9.5,3.9-2.3,8.42-3.45,13.55-3.45s9.37,1.1,13.1,3.3c3.73,2.2,6.63,5.17,8.7,8.9,2.07,3.73,3.1,7.97,3.1,12.7v2.25c0,.83-.07,1.68-.2,2.55h-40.9v-8.2h27.5c-.2-3.27-1.35-5.83-3.45-7.7-2.1-1.87-4.72-2.8-7.85-2.8-2.27,0-4.37.52-6.3,1.55-1.93,1.03-3.45,2.62-4.55,4.75-1.1,2.13-1.65,4.83-1.65,8.1v2.9c0,2.73.52,5.12,1.55,7.15,1.03,2.04,2.48,3.6,4.35,4.7,1.87,1.1,4.03,1.65,6.5,1.65s4.52-.53,6.15-1.6c1.63-1.07,2.85-2.43,3.65-4.1h13.8c-.93,3.13-2.5,5.97-4.7,8.5-2.2,2.53-4.9,4.53-8.1,6s-6.77,2.2-10.7,2.2Z"/>
  <path d="M550.49,192v-50.4h11.9l1,8.2c1.53-2.8,3.72-5.07,6.55-6.8,2.83-1.73,6.22-2.6,10.15-2.6,4.2,0,7.73.87,10.6,2.6,2.87,1.73,5.05,4.27,6.55,7.6,1.5,3.33,2.25,7.43,2.25,12.3v29.1h-13.4v-27.8c0-4-.85-7.07-2.55-9.2-1.7-2.13-4.32-3.2-7.85-3.2-2.27,0-4.28.53-6.05,1.6-1.77,1.07-3.15,2.58-4.15,4.55-1,1.97-1.5,4.35-1.5,7.15v26.9h-13.5Z"/>
  <path d="M634.89,192c-3.53,0-6.62-.55-9.25-1.65-2.63-1.1-4.68-2.93-6.15-5.5-1.47-2.57-2.2-6.08-2.2-10.55v-21.4h-8.6v-11.3h8.6l1.5-13.7h12v13.7h13.3v11.3h-13.3v21.6c0,2.27.5,3.83,1.5,4.7,1,.87,2.7,1.3,5.1,1.3h6.6v11.5h-9.1Z"/>
  <path d="M676.09,193.2c-4.6,0-8.6-.73-12-2.2-3.4-1.47-6.07-3.5-8-6.1-1.93-2.6-3.03-5.53-3.3-8.8h13.4c.33,1.27.9,2.42,1.7,3.45.8,1.03,1.87,1.85,3.2,2.45,1.33.6,2.93.9,4.8.9s3.27-.25,4.4-.75c1.13-.5,1.98-1.18,2.55-2.05.57-.87.85-1.77.85-2.7,0-1.4-.4-2.48-1.2-3.25-.8-.77-1.97-1.38-3.5-1.85-1.53-.47-3.4-.93-5.6-1.4-2.4-.47-4.75-1.05-7.05-1.75-2.3-.7-4.35-1.58-6.15-2.65-1.8-1.07-3.23-2.43-4.3-4.1-1.07-1.67-1.6-3.73-1.6-6.2,0-3,.8-5.68,2.4-8.05,1.6-2.37,3.93-4.25,7-5.65,3.07-1.4,6.77-2.1,11.1-2.1,6.07,0,10.87,1.37,14.4,4.1,3.53,2.73,5.63,6.5,6.3,11.3h-12.7c-.4-1.53-1.29-2.75-2.65-3.65-1.37-.9-3.18-1.35-5.45-1.35-2.4,0-4.23.43-5.5,1.3-1.27.87-1.9,2-1.9,3.4,0,.93.42,1.77,1.25,2.5.83.73,2.02,1.35,3.55,1.85,1.53.5,3.4.98,5.6,1.45,3.87.8,7.27,1.72,10.2,2.75,2.93,1.03,5.23,2.5,6.9,4.4,1.67,1.9,2.5,4.65,2.5,8.25,0,3.2-.87,6.05-2.6,8.55-1.73,2.5-4.18,4.45-7.35,5.85-3.17,1.4-6.92,2.1-11.25,2.1Z"/>
  <path d="M0,312v-70h26.1c5.67,0,10.33.97,14,2.9,3.67,1.93,6.4,4.52,8.2,7.75,1.8,3.23,2.7,6.82,2.7,10.75s-.87,7.22-2.6,10.45c-1.73,3.23-4.45,5.83-8.15,7.8-3.7,1.97-8.45,2.95-14.25,2.95h-12.5v27.4H0ZM13.5,274.8h11.8c4.07,0,7.07-1,9-3,1.93-2,2.9-4.63,2.9-7.9s-.95-5.85-2.85-7.75c-1.9-1.9-4.92-2.85-9.05-2.85h-11.8v21.5ZM36.3,312l-14.4-30.8h14.6l15.2,30.8h-15.4Z"/>
  <path d="M84,313.2c-5.07,0-9.55-1.08-13.45-3.25-3.9-2.17-6.93-5.2-9.1-9.1-2.17-3.9-3.25-8.42-3.25-13.55s1.07-9.92,3.2-13.95c2.13-4.03,5.15-7.2,9.05-9.5,3.9-2.3,8.42-3.45,13.55-3.45s9.37,1.1,13.1,3.3c3.73,2.2,6.63,5.17,8.7,8.9,2.07,3.73,3.1,7.97,3.1,12.7v2.25c0,.83-.07,1.68-.2,2.55h-40.9v-8.2h27.5c-.2-3.27-1.35-5.83-3.45-7.7-2.1-1.87-4.72-2.8-7.85-2.8-2.27,0-4.37.52-6.3,1.55-1.93,1.03-3.45,2.62-4.55,4.75-1.1,2.13-1.65,4.83-1.65,8.1v2.9c0,2.73.52,5.12,1.55,7.15,1.03,2.04,2.48,3.6,4.35,4.7,1.87,1.1,4.03,1.65,6.5,1.65s4.52-.53,6.15-1.6c1.63-1.07,2.85-2.43,3.65-4.1h13.8c-.93,3.13-2.5,5.97-4.7,8.5-2.2,2.53-4.9,4.53-8.1,6s-6.77,2.2-10.7,2.2Z"/>
  <path d="M131.5,312l-18.5-50.4h14.2l12.5,37.7,12.5-37.7h14.1l-18.4,50.4h-16.4Z"/>
  <path d="M181.6,254.7c-2.4,0-4.38-.72-5.95-2.15-1.57-1.43-2.35-3.25-2.35-5.45s.78-4.02,2.35-5.45c1.57-1.43,3.55-2.15,5.95-2.15s4.48.72,6.05,2.15c1.57,1.43,2.35,3.25,2.35,5.45s-.78,4.02-2.35,5.45c-1.57,1.43-3.58,2.15-6.05,2.15ZM174.8,312v-50.4h13.5v50.4h-13.5Z"/>
  <path d="M226.1,313.2c-5.07,0-9.55-1.08-13.45-3.25-3.9-2.17-6.93-5.2-9.1-9.1-2.17-3.9-3.25-8.42-3.25-13.55s1.07-9.92,3.2-13.95c2.13-4.03,5.15-7.2,9.05-9.5,3.9-2.3,8.42-3.45,13.55-3.45s9.37,1.1,13.1,3.3c3.73,2.2,6.63,5.17,8.7,8.9,2.07,3.73,3.1,7.97,3.1,12.7v2.25c0,.83-.07,1.68-.2,2.55h-40.9v-8.2h27.5c-.2-3.27-1.35-5.83-3.45-7.7-2.1-1.87-4.72-2.8-7.85-2.8-2.27,0-4.37.52-6.3,1.55-1.93,1.03-3.45,2.62-4.55,4.75-1.1,2.13-1.65,4.83-1.65,8.1v2.9c0,2.73.52,5.12,1.55,7.15,1.03,2.04,2.48,3.6,4.35,4.7,1.87,1.1,4.03,1.65,6.5,1.65s4.52-.53,6.15-1.6c1.63-1.07,2.85-2.43,3.65-4.1h13.8c-.93,3.13-2.5,5.97-4.7,8.5-2.2,2.53-4.9,4.53-8.1,6s-6.77,2.2-10.7,2.2Z"/>
  <path d="M270,312l-14.8-50.4h13.3l9.8,40.9-2.5-.1,11.2-40.8h15l11.2,40.8-2.6.1,9.9-40.9h13.3l-14.8,50.4h-14l-11.9-42h2.8l-11.9,42h-14Z"/>
</svg>