<?xml version="1.0" encoding="UTF-8"?>
<svg id="Layer_1" xmlns="http://www.w3.org/2000/svg" version="1.1" viewBox="0 0 1000 1000">
  <!-- Generator: Adobe Illustrator 30.1.0, SVG Export Plug-In . SVG Version: 2.1.1 Build 136)  -->
  <defs>
    <style>
      .st0 {
        fill: #f2f0ef;
      }

      .st1 {
        display: none;
        fill: #fff;
      }

      .st2 {
        fill: #66615e;
      }
    </style>
  </defs>
  <rect class="st2" width="1000" height="1000"/>
  <rect class="st1" width="1000" height="1000"/>
  <g>
    <path class="st0" d="M650.07,357.05c0,28.47-5.28,53.65-15.82,75.53-10.55,21.89-24.52,40.14-41.92,54.77-17.4,14.63-37.44,25.7-60.11,33.22-22.68,7.51-46.27,11.27-70.79,11.27h-89.37s0,176.77,0,176.77c0,8.44,1.32,16.41,3.95,23.92,2.63,7.51,7.51,12.46,14.63,14.83,3.16,1.06,7.25,1.92,12.26,2.57,5,.66,10.34,1.19,16.02,1.58,5.67.4,11.53.73,17.6.99,6.06.27,11.6.4,16.61.4v27.68s-209.59,0-209.59,0v-27.68c3.95,0,8.43-.2,13.45-.59,5-.4,9.95-.92,14.83-1.58,4.87-.65,9.49-1.45,13.84-2.37,4.35-.92,8.11-2.04,11.27-3.36,6.59-2.37,11.33-7.32,14.24-14.83,2.9-7.51,4.35-15.48,4.35-23.92v-409.29c0-8.96-1.58-17.53-4.75-25.7-3.16-8.17-8.84-13.84-17-17-10.02-2.37-19.84-4.21-29.46-5.54-9.63-1.32-18.26-1.98-25.9-1.98v-27.29s249.53,0,249.53,0c22.15,0,43.04,3.5,62.68,10.48,19.64,6.99,36.84,16.61,51.61,28.87,14.76,12.26,26.43,26.76,35,43.5,8.56,16.75,12.85,35,12.85,54.77ZM582.65,376.42c0-13.18-1.92-27.15-5.73-41.92-3.83-14.76-10.35-28.4-19.57-40.93-9.23-12.52-21.75-22.87-37.57-31.04-15.82-8.17-35.59-12.26-59.32-12.26h-88.58s0,248.34,0,248.34h69.6c21.09,0,39.21-2.5,54.37-7.51,15.16-5,27.94-11.4,38.36-19.18,10.41-7.77,18.85-16.41,25.31-25.9,6.46-9.49,11.4-18.78,14.83-27.88,3.42-9.1,5.67-17.4,6.72-24.91,1.05-7.51,1.58-13.11,1.58-16.81Z"/>
    <path class="st0" d="M761.79,503.76c0,31.9-4.15,60.84-12.46,86.8-8.3,25.97-19.64,49.23-34.01,69.8-14.37,20.56-31.31,38.36-50.82,53.39-19.51,15.03-40.47,27.48-62.88,37.37-22.41,9.89-45.74,17.27-69.99,22.15-24.26,4.88-48.25,7.32-71.97,7.32h-221.45s0-27.68,0-27.68c3.42.27,7.64.2,12.65-.2,5-.4,10.08-.85,15.22-1.38,5.14-.52,10.02-1.19,14.63-1.98,4.61-.79,8.11-1.45,10.48-1.98,8.17-3.69,13.84-8.96,17-15.82,3.16-6.85,4.75-14.76,4.75-23.73v-408.5c0-8.96-1.58-17-4.75-24.12-3.16-7.12-8.84-12.52-17-16.21-8.44-3.95-16.87-6.98-25.31-9.1-8.44-2.11-15.95-3.16-22.54-3.16v-27.29s234.11,0,234.11,0c16.61,0,35.2,1.78,55.76,5.34,20.56,3.56,41.32,9.63,62.28,18.19,20.96,8.57,41.45,19.91,61.49,34.01,20.03,14.11,37.77,31.7,53.19,52.79,15.42,21.1,27.88,46.01,37.37,74.74,9.49,28.74,14.24,61.83,14.24,99.26ZM695.35,502.97c0-37.17-6-71.24-17.99-102.22-12-30.97-28.81-57.6-50.42-79.88-21.62-22.27-47.26-39.61-76.92-52-29.66-12.39-62.28-18.59-97.87-18.59-4.75,0-10.87.07-18.39.2-7.51.14-15.22.27-23.13.4-7.91.14-15.56.27-22.94.4-7.38.14-13.45.33-18.19.59v433.02c0,12.65,1.98,23.13,5.93,31.44,3.95,8.3,10.15,14.9,18.59,19.77,8.43,4.88,19.18,8.37,32.23,10.48,13.05,2.11,28.67,3.16,46.86,3.16,37.43,0,70.06-5.93,97.87-17.8,27.81-11.86,50.94-28.67,69.4-50.42,18.45-21.75,32.23-47.71,41.32-77.9,9.1-30.18,13.64-63.73,13.64-100.64Z"/>
    <path class="st0" d="M464.44,531.81c-1.39-1.84-2.79-3.68-4.19-5.52h-93.33s0,181.51,0,181.51c0,8.97,1.32,17.2,3.95,24.72,2.63,7.51,7.51,12.46,14.63,14.83,2.9,1.06,7.05,1.92,12.46,2.57,5.4.66,11.07,1.19,17,1.58,5.93.4,11.73.73,17.4.99,5.67.27,10.08.4,13.25.4v27.68h-207.22s0-27.68,0-27.68c3.42-.26,7.51-.59,12.26-.99,4.75-.4,9.55-.85,14.43-1.38,4.87-.52,9.42-1.12,13.64-1.78,4.21-.65,7.51-1.38,9.89-2.17,7.64-3.16,13.18-8.43,16.61-15.82,3.42-7.38,5.14-15.55,5.14-24.52v-410.08c0-8.96-1.52-17.6-4.55-25.9-3.03-8.3-8.77-13.64-17.2-16.02-2.64-.79-6.13-1.58-10.48-2.37-4.35-.79-8.9-1.51-13.64-2.17-4.75-.65-9.43-1.25-14.04-1.78-4.62-.52-8.64-.92-12.06-1.19v-27.29s245.18,0,245.18,0c19.77,0,39.67,2.31,59.71,6.92,20.03,4.62,38.09,12.13,54.18,22.54,16.08,10.42,29.2,24.19,39.35,41.32,10.15,17.14,15.22,38.1,15.22,62.88,0,22.94-3.63,42.65-10.87,59.12-7.25,16.48-17.14,30.65-29.66,42.51-12.52,11.86-27.09,21.82-43.7,29.86-16.61,8.05-34.15,14.97-52.6,20.76,2.9,3.85-56.09,19.46-50.78,26.48,10.67,14.09,76.2,7.03,82.42,15.24,7.38,9.75,14.71,19.34,23.73,31.83,6.85,9.49,13.11,18.26,18.78,26.3,5.67,8.05,11.53,16.35,17.6,24.91,6.06,8.57,12.65,17.86,19.77,27.88,7.12,10.02,15.55,21.75,25.31,35.2,3.72,5.21,7.24,9.85,10.56,13.94,1.39,1.71-44.5,44.01-53.57,29.95-5.82-9.01-11.58-17.85-17.3-26.5-14.63-22.15-29.2-43.56-43.7-64.26-14.5-20.69-29-40.93-43.5-60.7-13.15-17.93-26.52-35.87-40.1-53.8M583.24,361c0-19.77-3.1-36.71-9.29-50.82-6.2-14.1-14.57-25.57-25.11-34.4-10.55-8.83-22.88-15.29-36.97-19.38-14.11-4.08-28.94-6.13-44.49-6.13h-100.44s0,242.81,0,242.81h81.86c18.98,0,36.71-3.22,53.19-9.69,16.47-6.46,30.71-15.48,42.71-27.09,11.99-11.6,21.42-25.51,28.27-41.72,6.85-16.21,10.28-34.07,10.28-53.58Z"/>
  </g>
</svg>