<?xml version="1.0" encoding="UTF-8"?>
<svg id="Layer_1" data-name="Layer 1" xmlns="http://www.w3.org/2000/svg" viewBox="0 0 1000 1000">
  <defs>
    <style>
      .cls-1 {
        fill: #f2f0ef;
      }

      .cls-2 {
        fill: #66615e;
      }
    </style>
  </defs>
  <rect class="cls-2" width="1000" height="1000"/>
  <g>
    <path class="cls-1" d="M307.46,430.43c0,13.86-2.57,26.11-7.7,36.76-5.13,10.65-11.93,19.53-20.4,26.65-8.47,7.12-18.22,12.51-29.25,16.16-11.04,3.66-22.52,5.48-34.45,5.48h-43.49v86.02c0,4.11.64,7.99,1.92,11.64,1.28,3.66,3.66,6.06,7.12,7.22,1.54.51,3.53.93,5.97,1.25,2.44.32,5.03.58,7.79.77,2.76.19,5.61.36,8.56.48,2.95.13,5.64.19,8.08.19v13.47h-101.99v-13.47c1.92,0,4.1-.1,6.54-.29,2.44-.19,4.84-.45,7.22-.77,2.37-.32,4.62-.7,6.74-1.15,2.12-.45,3.95-.99,5.48-1.64,3.2-1.15,5.51-3.56,6.93-7.22,1.41-3.66,2.12-7.53,2.12-11.64v-199.17c0-4.36-.77-8.53-2.31-12.51-1.54-3.97-4.3-6.74-8.27-8.27-4.88-1.15-9.66-2.05-14.34-2.69-4.69-.64-8.89-.96-12.6-.96v-13.28h121.43c10.78,0,20.94,1.7,30.5,5.1,9.56,3.4,17.93,8.08,25.11,14.05,7.18,5.97,12.86,13.02,17.03,21.17,4.17,8.15,6.25,17.03,6.25,26.65ZM274.75,439.86c0-6.41-.93-13.21-2.79-20.4-1.86-7.18-5.04-13.82-9.53-19.92-4.49-6.09-10.58-11.13-18.28-15.11-7.7-3.97-17.32-5.97-28.87-5.97h-43.11v120.85h33.87c10.26,0,19.08-1.22,26.46-3.66,7.38-2.44,13.6-5.55,18.67-9.33,5.07-3.78,9.17-7.99,12.32-12.6,3.14-4.62,5.55-9.14,7.22-13.57,1.67-4.43,2.76-8.47,3.27-12.12.51-3.66.77-6.38.77-8.18Z"/>
    <path class="cls-1" d="M598.82,501.83c0,15.52-2.02,29.61-6.06,42.24-4.04,12.64-9.56,23.96-16.55,33.97-6.99,10.01-15.24,18.67-24.73,25.98-9.5,7.31-19.7,13.37-30.6,18.19-10.91,4.81-22.26,8.4-34.06,10.78-11.81,2.38-23.48,3.56-35.02,3.56h-107.77v-13.47c1.67.13,3.72.1,6.16-.1,2.44-.19,4.91-.41,7.41-.67,2.5-.26,4.87-.58,7.12-.96,2.24-.38,3.95-.7,5.1-.96,3.97-1.79,6.74-4.36,8.27-7.7,1.54-3.33,2.31-7.18,2.31-11.55v-198.79c0-4.36-.77-8.27-2.31-11.74s-4.3-6.09-8.27-7.89c-4.11-1.92-8.21-3.4-12.32-4.43-4.11-1.03-7.76-1.54-10.97-1.54v-13.28h113.92c8.08,0,17.13.87,27.13,2.6,10.01,1.73,20.11,4.69,30.31,8.85,10.2,4.17,20.17,9.69,29.92,16.55,9.75,6.86,18.38,15.43,25.88,25.69,7.51,10.27,13.57,22.39,18.19,36.37,4.62,13.99,6.93,30.09,6.93,48.3ZM566.49,501.44c0-18.09-2.92-34.67-8.76-49.75-5.84-15.07-14.02-28.03-24.54-38.87-10.52-10.84-23-19.27-37.43-25.31-14.43-6.03-30.31-9.04-47.63-9.04-2.31,0-5.29.03-8.95.1-3.66.07-7.41.13-11.26.19-3.85.07-7.57.13-11.16.19-3.59.07-6.54.16-8.85.29v210.72c0,6.16.96,11.26,2.89,15.3s4.94,7.25,9.04,9.62c4.1,2.38,9.33,4.07,15.68,5.1,6.35,1.03,13.95,1.54,22.8,1.54,18.22,0,34.09-2.89,47.63-8.66,13.53-5.77,24.79-13.95,33.77-24.54,8.98-10.58,15.68-23.22,20.11-37.91,4.43-14.69,6.64-31.01,6.64-48.97Z"/>
    <path class="cls-1" d="M832.05,636.54c-7.44-11.93-14.72-23.29-21.84-34.06-7.12-10.78-14.21-21.2-21.26-31.27-7.06-10.07-14.11-19.92-21.17-29.54-7.06-9.62-14.24-19.24-21.55-28.87h-45.42v88.33c0,4.36.64,8.37,1.92,12.03,1.28,3.66,3.66,6.06,7.12,7.22,1.41.51,3.43.93,6.06,1.25,2.63.32,5.39.58,8.27.77s5.71.36,8.47.48c2.76.13,4.91.19,6.45.19v13.47h-100.84v-13.47c1.67-.13,3.66-.29,5.97-.48s4.65-.41,7.02-.67c2.37-.26,4.59-.54,6.64-.87,2.05-.32,3.66-.67,4.81-1.06,3.72-1.54,6.41-4.1,8.08-7.7,1.67-3.59,2.5-7.57,2.5-11.93v-199.56c0-4.36-.74-8.56-2.21-12.6-1.48-4.04-4.27-6.64-8.37-7.79-1.28-.38-2.98-.77-5.1-1.15s-4.33-.74-6.64-1.06c-2.31-.32-4.59-.61-6.83-.87-2.25-.26-4.2-.45-5.87-.58v-13.28h119.31c9.62,0,19.31,1.12,29.06,3.37,9.75,2.25,18.54,5.9,26.36,10.97,7.82,5.07,14.21,11.77,19.15,20.11,4.94,8.34,7.41,18.54,7.41,30.6,0,11.16-1.77,20.75-5.29,28.77-3.53,8.02-8.34,14.91-14.43,20.69-6.1,5.77-13.18,10.62-21.26,14.53-8.08,3.92-16.62,7.28-25.59,10.1,5.9,7.83,11.03,14.6,15.4,20.3,4.36,5.71,8.21,10.87,11.55,15.49,3.33,4.62,6.38,8.89,9.14,12.8,2.76,3.92,5.61,7.96,8.56,12.12,2.95,4.17,6.16,8.69,9.62,13.57,3.46,4.88,7.57,10.58,12.32,17.13,2.56,3.59,4.94,6.64,7.12,9.14,2.18,2.5,4.33,4.69,6.45,6.54,2.12,1.86,4.17,3.4,6.16,4.62,1.99,1.22,4.07,2.34,6.25,3.37,1.92.9,4.04,1.67,6.35,2.31,2.31.64,4.68,1.15,7.12,1.54,2.44.38,4.87.71,7.31.96,2.44.26,4.62.45,6.54.58v13.47h-60.81ZM806.07,432.36c0-9.62-1.51-17.86-4.52-24.73-3.02-6.86-7.09-12.44-12.22-16.74-5.13-4.3-11.13-7.44-17.99-9.43-6.86-1.99-14.08-2.98-21.65-2.98h-48.88v118.16h39.83c9.24,0,17.86-1.57,25.88-4.71,8.02-3.14,14.94-7.53,20.78-13.18,5.84-5.64,10.42-12.41,13.76-20.3,3.33-7.89,5-16.58,5-26.08Z"/>
  </g>
</svg>