<?xml version="1.0" encoding="UTF-8"?>
<svg id="Layer_1" data-name="Layer 1" xmlns="http://www.w3.org/2000/svg" viewBox="0 0 1053.49 1045.51">
  <defs>
    <style>
      .cls-1 {
        fill: #fff;
      }
    </style>
  </defs>
  <rect class="cls-1" width="1053.49" height="1045.51"/>
  <g>
    <path d="M440.77,493.19c0,7.73-1.43,14.57-4.3,20.52-2.87,5.95-6.66,10.9-11.39,14.88s-10.17,6.98-16.33,9.02c-6.16,2.04-12.57,3.06-19.23,3.06h-24.28v48.02c0,2.29.36,4.46,1.07,6.5.71,2.04,2.04,3.38,3.97,4.03.86.29,1.97.52,3.33.7,1.36.18,2.81.32,4.35.43,1.54.11,3.13.2,4.78.27,1.65.07,3.15.11,4.51.11v7.52h-56.93v-7.52c1.07,0,2.29-.05,3.65-.16,1.36-.11,2.7-.25,4.03-.43,1.32-.18,2.58-.39,3.76-.64,1.18-.25,2.2-.55,3.06-.91,1.79-.64,3.08-1.99,3.87-4.03.79-2.04,1.18-4.21,1.18-6.5v-111.18c0-2.43-.43-4.76-1.29-6.98-.86-2.22-2.4-3.76-4.62-4.62-2.72-.64-5.39-1.14-8-1.5-2.62-.36-4.96-.54-7.04-.54v-7.41h67.78c6.02,0,11.69.95,17.03,2.85,5.33,1.9,10.01,4.51,14.02,7.84,4.01,3.33,7.18,7.27,9.51,11.82,2.33,4.55,3.49,9.51,3.49,14.88ZM422.51,498.46c0-3.58-.52-7.38-1.56-11.39-1.04-4.01-2.81-7.72-5.32-11.12-2.51-3.4-5.91-6.21-10.21-8.43-4.3-2.22-9.67-3.33-16.11-3.33h-24.06v67.46h18.91c5.73,0,10.65-.68,14.77-2.04,4.12-1.36,7.59-3.1,10.42-5.21,2.83-2.11,5.12-4.46,6.88-7.04,1.75-2.58,3.1-5.1,4.03-7.57.93-2.47,1.54-4.73,1.83-6.77.29-2.04.43-3.56.43-4.57Z"/>
    <path d="M603.41,533.05c0,8.67-1.13,16.53-3.38,23.58-2.26,7.05-5.34,13.37-9.24,18.96-3.9,5.59-8.5,10.42-13.8,14.5-5.3,4.08-10.99,7.47-17.08,10.15-6.09,2.69-12.43,4.69-19.01,6.02-6.59,1.33-13.11,1.99-19.55,1.99h-60.16v-7.52c.93.07,2.08.05,3.44-.05,1.36-.11,2.74-.23,4.14-.38,1.4-.14,2.72-.32,3.97-.54,1.25-.21,2.2-.39,2.85-.54,2.22-1,3.76-2.43,4.62-4.3.86-1.86,1.29-4.01,1.29-6.45v-110.97c0-2.43-.43-4.62-1.29-6.55s-2.4-3.4-4.62-4.4c-2.29-1.07-4.58-1.9-6.88-2.47-2.29-.57-4.33-.86-6.12-.86v-7.41h63.59c4.51,0,9.56.48,15.15,1.45s11.23,2.62,16.92,4.94c5.69,2.33,11.26,5.41,16.7,9.24,5.44,3.83,10.26,8.61,14.45,14.34,4.19,5.73,7.57,12.5,10.15,20.3,2.58,7.81,3.87,16.79,3.87,26.96ZM585.36,532.83c0-10.1-1.63-19.35-4.89-27.77-3.26-8.41-7.83-15.65-13.7-21.7-5.87-6.05-12.84-10.76-20.89-14.13-8.06-3.37-16.92-5.05-26.59-5.05-1.29,0-2.95.02-5,.05-2.04.04-4.14.07-6.28.11-2.15.04-4.23.07-6.23.11-2.01.04-3.65.09-4.94.16v117.63c0,3.44.54,6.28,1.61,8.54s2.76,4.05,5.05,5.37c2.29,1.33,5.21,2.27,8.75,2.85,3.54.57,7.79.86,12.73.86,10.17,0,19.03-1.61,26.59-4.83,7.55-3.22,13.84-7.79,18.85-13.7,5.01-5.91,8.75-12.96,11.23-21.16,2.47-8.2,3.71-17.31,3.71-27.34Z"/>
    <path d="M733.61,608.24c-4.15-6.66-8.22-13-12.19-19.01s-7.93-11.83-11.87-17.46c-3.94-5.62-7.88-11.12-11.82-16.49-3.94-5.37-7.95-10.74-12.03-16.11h-25.35v49.31c0,2.44.36,4.67,1.07,6.71.71,2.04,2.04,3.38,3.97,4.03.79.29,1.92.52,3.38.7,1.47.18,3.01.32,4.62.43s3.19.2,4.73.27c1.54.07,2.74.11,3.6.11v7.52h-56.29v-7.52c.93-.07,2.04-.16,3.33-.27s2.59-.23,3.92-.38c1.32-.14,2.56-.3,3.71-.48,1.14-.18,2.04-.38,2.69-.59,2.08-.86,3.58-2.29,4.51-4.3.93-2,1.4-4.22,1.4-6.66v-111.4c0-2.43-.41-4.78-1.24-7.04-.82-2.26-2.38-3.71-4.67-4.35-.72-.21-1.67-.43-2.85-.64s-2.42-.41-3.71-.59c-1.29-.18-2.56-.34-3.81-.48-1.25-.14-2.35-.25-3.28-.32v-7.41h66.6c5.37,0,10.78.63,16.22,1.88,5.44,1.25,10.35,3.29,14.72,6.12,4.37,2.83,7.93,6.57,10.69,11.23,2.76,4.66,4.14,10.35,4.14,17.08,0,6.23-.99,11.58-2.95,16.06-1.97,4.48-4.66,8.33-8.06,11.55-3.4,3.22-7.36,5.93-11.87,8.11-4.51,2.19-9.28,4.07-14.29,5.64,3.29,4.37,6.16,8.15,8.59,11.33,2.43,3.19,4.58,6.07,6.45,8.65,1.86,2.58,3.56,4.96,5.1,7.14,1.54,2.19,3.13,4.44,4.78,6.77,1.65,2.33,3.44,4.85,5.37,7.57,1.93,2.72,4.22,5.91,6.88,9.56,1.43,2.01,2.76,3.71,3.97,5.1,1.22,1.4,2.42,2.62,3.6,3.65,1.18,1.04,2.33,1.9,3.44,2.58,1.11.68,2.27,1.31,3.49,1.88,1.07.5,2.26.93,3.54,1.29,1.29.36,2.61.64,3.97.86,1.36.21,2.72.39,4.08.54,1.36.14,2.58.25,3.65.32v7.52h-33.95ZM719.1,494.27c0-5.37-.84-9.97-2.52-13.8-1.68-3.83-3.96-6.95-6.82-9.35-2.87-2.4-6.21-4.15-10.04-5.26-3.83-1.11-7.86-1.67-12.08-1.67h-27.29v65.96h22.24c5.16,0,9.97-.88,14.45-2.63,4.47-1.75,8.34-4.21,11.6-7.36,3.26-3.15,5.82-6.93,7.68-11.33,1.86-4.4,2.79-9.25,2.79-14.56Z"/>
  </g>
</svg>