<?xml version="1.0" encoding="UTF-8"?>
<svg id="Layer_1" xmlns="http://www.w3.org/2000/svg" version="1.1" viewBox="0 0 1000 1000">
  <!-- Generator: Adobe Illustrator 30.1.0, SVG Export Plug-In . SVG Version: 2.1.1 Build 136)  -->
  <defs>
    <style>
      .st0 {
        font-size: 100px;
      }

      .st0, .st1 {
        font-family: The-Seasons-Regular, 'The Seasons';
      }

      .st0, .st1, .st2 {
        display: none;
        fill: #fff;
      }

      .st1 {
        font-size: 630.14px;
        letter-spacing: -.4em;
      }
    </style>
  </defs>
  <rect class="st2" width="1000" height="1000"/>
  <text class="st0" transform="translate(176.2 407.65)"><tspan x="0" y="0">Portugal</tspan><tspan x="0" y="120">Developments</tspan><tspan x="0" y="240">Review</tspan></text>
  <text class="st1" transform="translate(156.9 718.13)"><tspan x="0" y="0">PDR</tspan></text>
  <text/>
  <g>
    <path d="M329.33,438.21c0,12.72-2.49,23.98-7.48,33.77-4.98,9.8-11.89,17.9-20.71,24.32-8.71,6.42-18.28,11.12-28.7,14.09-10.43,2.98-21.48,4.47-33.17,4.47h-27.33v73.91c0,4.01.66,7.54,1.98,10.57,1.32,3.04,4.04,5.36,8.16,6.96,2.06.8,5.7,1.55,10.91,2.23,5.21.69,10,1.09,14.35,1.2v12.2h-104.67v-12.2c2.75-.23,6.73-.63,11.95-1.2,5.21-.57,8.85-1.32,10.91-2.23,3.44-1.49,5.93-3.67,7.48-6.53,1.55-2.86,2.32-6.53,2.32-11v-176c0-4.01-.57-7.62-1.72-10.83-1.15-3.21-3.84-5.61-8.08-7.22-4.36-1.49-8.68-2.55-12.98-3.18-4.3-.63-7.99-1.06-11.09-1.29v-12.2h111.38c22.69,0,41.1,5.47,55.26,16.41,14.15,10.94,21.23,25.52,21.23,43.74ZM277.08,479.8c3.89-5.5,6.47-11.2,7.73-17.1,1.26-5.9,1.89-11.2,1.89-15.9,0-6.53-.77-13.18-2.32-19.94-1.55-6.76-4.21-12.66-7.99-17.7-4.01-5.38-9.28-9.57-15.81-12.55-6.53-2.98-14.67-4.47-24.41-4.47h-24.23v107.77h17.53c12.38,0,22.43-1.92,30.16-5.76,7.73-3.84,13.55-8.62,17.45-14.35Z"/>
    <path d="M590.92,501.46c0,20.74-3.9,38.73-11.69,53.97-7.79,15.24-17.93,27.73-30.42,37.47-12.61,9.74-26.76,17.02-42.45,21.83-15.7,4.81-31.91,7.22-48.64,7.22h-101.06v-12.2c3.32,0,7.65-.31,12.98-.95,5.33-.63,8.85-1.35,10.57-2.15,3.44-1.49,5.93-3.7,7.48-6.62s2.32-6.45,2.32-10.57v-176c0-3.89-.66-7.39-1.98-10.48-1.32-3.09-3.93-5.56-7.82-7.39-3.55-1.72-7.39-2.98-11.52-3.78-4.12-.8-7.68-1.32-10.66-1.55v-12.2h106.56c14.67,0,29.1,2.26,43.31,6.79,14.21,4.53,26.58,10.63,37.12,18.3,14.32,10.2,25.55,23.55,33.69,40.05,8.13,16.5,12.2,35.92,12.2,58.27ZM548.81,501.38c0-16.37-2.18-31.17-6.53-44.39-4.36-13.22-10.71-24.76-19.08-34.61-7.91-9.39-17.62-16.77-29.13-22.15s-24.32-8.07-38.41-8.07c-4.7,0-10,.09-15.9.26-5.9.17-10.29.32-13.15.43v187.37c0,10.42,3.04,17.63,9.11,21.64,6.07,4.01,15.41,6.01,28.02,6.01,14.55,0,27.27-2.58,38.16-7.73,10.88-5.15,19.71-12.31,26.47-21.47,7.1-9.62,12.29-20.75,15.55-33.4,3.27-12.65,4.9-27.28,4.9-43.88Z"/>
    <path d="M858.53,621.95h-65.67c-14.54-22.8-27.67-42.51-39.41-59.12-11.73-16.61-24.47-33.74-38.2-51.39h-24.98v77.34c0,4.01.63,7.54,1.89,10.57,1.26,3.04,3.95,5.36,8.08,6.96,2.06.8,5.67,1.55,10.83,2.23s9.51,1.09,13.06,1.2v12.2h-103.12v-12.2c2.75-.23,6.73-.63,11.95-1.2,5.21-.57,8.85-1.32,10.91-2.23,3.44-1.49,5.93-3.67,7.48-6.53,1.55-2.86,2.32-6.53,2.32-11v-176.34c0-4.01-.57-7.56-1.72-10.66-1.15-3.09-3.84-5.44-8.08-7.05-2.87-1.03-6.59-1.98-11.17-2.84-4.58-.86-8.48-1.4-11.69-1.63v-12.2h112.58c10.31,0,19.99,1.06,29.05,3.18,9.05,2.12,17.24,5.53,24.58,10.23,7.1,4.58,12.78,10.57,17.02,17.96,4.24,7.39,6.36,16.3,6.36,26.73,0,9.4-1.43,17.7-4.3,24.92-2.87,7.22-7.11,13.47-12.72,18.73-5.16,4.93-11.34,9.2-18.56,12.8s-15.18,6.68-23.89,9.2c12.03,15.93,22.03,29.33,29.99,40.22,7.96,10.89,17.73,24.12,29.3,39.7,5.04,6.88,9.6,11.95,13.66,15.21,4.07,3.27,8.11,5.93,12.12,7.99,2.98,1.49,6.7,2.64,11.17,3.44,4.47.8,8.19,1.26,11.17,1.38v12.2ZM768.12,440.2c0-14.76-4.24-26.46-12.72-35.09-8.48-8.64-20.45-12.96-35.92-12.96h-29.22v104.5h22.52c15.81,0,28.99-5.06,39.53-15.18,10.54-10.12,15.81-23.88,15.81-41.27Z"/>
  </g>
</svg>